<svg xmlns="http://www.w3.org/2000/svg" width="70.24" height="62.25" viewBox="0 0 70.24 62.25">
  <path id="Icon_metro-automobile" data-name="Icon metro-automobile" d="M19.034,45.059a6.421,6.421,0,0,0-1.612-4.4,5.021,5.021,0,0,0-7.751,0,6.8,6.8,0,0,0,0,8.793,5.021,5.021,0,0,0,7.751,0A6.421,6.421,0,0,0,19.034,45.059Zm1.235-12.45H55.114l-3.052-13.89a1.409,1.409,0,0,0-.48-.681,1.169,1.169,0,0,0-.72-.37H24.521a1.169,1.169,0,0,0-.72.37,1.409,1.409,0,0,0-.48.681Zm47.055,12.45a6.421,6.421,0,0,0-1.612-4.4,5.021,5.021,0,0,0-7.751,0,6.8,6.8,0,0,0,0,8.793,5.021,5.021,0,0,0,7.751,0A6.421,6.421,0,0,0,67.324,45.059Zm5.488-3.735v14.94a1.3,1.3,0,0,1-.309.895,1,1,0,0,1-.789.35H68.421v4.98A7.722,7.722,0,0,1,66.5,67.78a6.082,6.082,0,0,1-9.329,0,7.722,7.722,0,0,1-1.921-5.291v-4.98H20.131v4.98a7.722,7.722,0,0,1-1.921,5.291,6.082,6.082,0,0,1-9.329,0,7.722,7.722,0,0,1-1.921-5.291v-4.98H3.669a1,1,0,0,1-.789-.35,1.3,1.3,0,0,1-.309-.895V41.324a9,9,0,0,1,2.246-6.167,6.992,6.992,0,0,1,5.436-2.548h.96l3.6-16.3a11.142,11.142,0,0,1,3.567-6.128,9.032,9.032,0,0,1,6.139-2.471h26.34A9.032,9.032,0,0,1,57,10.179a11.142,11.142,0,0,1,3.567,6.128l3.6,16.3h.96a6.992,6.992,0,0,1,5.436,2.548,9,9,0,0,1,2.246,6.167Z" transform="translate(-2.571 -7.709)" fill="#ffbc0a"/>
</svg>
