<svg xmlns="http://www.w3.org/2000/svg" width="62.244" height="62.246" viewBox="0 0 62.244 62.246">
  <path id="Icon_awesome-tools" data-name="Icon awesome-tools" d="M60.918,48.1,46.683,33.867A9.026,9.026,0,0,0,36.3,32.178L23.343,19.219V11.67L7.783,0,0,7.78l11.67,15.56h7.549L32.18,36.3A9.046,9.046,0,0,0,33.87,46.68L48.105,60.915a4.52,4.52,0,0,0,6.406,0l6.406-6.406a4.542,4.542,0,0,0,0-6.406ZM40.325,27.352A12.79,12.79,0,0,1,49.43,31.12l2.358,2.358a17.207,17.207,0,0,0,5.324-3.586A17.482,17.482,0,0,0,61.72,13.275a1.455,1.455,0,0,0-2.443-.669L50.232,21.65l-8.254-1.374L40.6,12.023l9.044-9.044A1.468,1.468,0,0,0,48.956.523,17.511,17.511,0,0,0,32.351,5.13a17.227,17.227,0,0,0-5.008,12.594l9.98,9.98a13.243,13.243,0,0,1,3-.353ZM27.695,37.32,20.8,30.427,2.276,48.966a7.779,7.779,0,1,0,11,11L28.3,44.942a13.054,13.054,0,0,1-.608-7.622ZM7.783,57.378A2.918,2.918,0,1,1,10.7,54.46,2.926,2.926,0,0,1,7.783,57.378Z" transform="translate(0.004)" fill="#ffbc0a"/>
</svg>
