<svg xmlns="http://www.w3.org/2000/svg" width="81.182" height="54.8" viewBox="0 0 81.182 54.8">
  <path id="Icon_zocial-email" data-name="Icon zocial-email" d="M.072,54.014V8.922q0-.078.235-1.487l26.539,22.7L.385,55.58a6.635,6.635,0,0,1-.313-1.566ZM3.595,4.3a3.374,3.374,0,0,1,1.331-.235H76.4A4.433,4.433,0,0,1,77.81,4.3L51.192,27.084,47.67,29.9,40.7,35.617,33.735,29.9l-3.523-2.818Zm.078,54.33,26.7-25.6L40.7,41.41l10.334-8.377,26.7,25.6a3.759,3.759,0,0,1-1.331.235H4.926a3.546,3.546,0,0,1-1.253-.235Zm50.886-28.5,26.461-22.7a4.673,4.673,0,0,1,.235,1.487V54.014a6,6,0,0,1-.235,1.566Z" transform="translate(-0.072 -4.068)" fill="#ffbc0a"/>
</svg>
